<svg xmlns="http://www.w3.org/2000/svg" viewBox="0 0 512 512">
  <rect width="512" height="512" rx="112" fill="#e4002b"/>
  <rect x="132" y="132" width="248" height="248" rx="42" fill="#fff"/>
  <path d="M154 174h204l-24 186H178z" fill="#fff"/>
  <path d="M174 174h164l-20 166H194z" fill="#e4002b"/>
  <path d="M154 174c0-38 28-70 62-70h80c34 0 62 32 62 70z" fill="#fff"/>
  <path d="M196 174c0-18 14-32 32-32h56c18 0 32 14 32 32z" fill="#e4002b"/>
  <rect x="230" y="214" width="52" height="94" rx="8" fill="#fff"/>
  <rect x="208" y="238" width="96" height="22" rx="8" fill="#fff"/>
</svg>
