<svg width="17" height="18" viewBox="0 0 17 18" fill="none" xmlns="http://www.w3.org/2000/svg">
<path d="M15.4334 13.2482C15.1763 13.8421 14.872 14.3888 14.5194 14.8914C14.0388 15.5767 13.6453 16.051 13.342 16.3144C12.8719 16.7467 12.3682 16.9681 11.8289 16.9807C11.4417 16.9807 10.9747 16.8705 10.4311 16.647C9.88579 16.4245 9.38462 16.3144 8.92637 16.3144C8.44577 16.3144 7.93033 16.4245 7.379 16.647C6.82683 16.8705 6.38201 16.987 6.04191 16.9985C5.52469 17.0206 5.00914 16.7929 4.49454 16.3144C4.16609 16.0279 3.75527 15.5368 3.26312 14.8411C2.73509 14.0981 2.30097 13.2366 1.96088 12.2544C1.59665 11.1935 1.41406 10.1662 1.41406 9.17164C1.41406 8.03236 1.66024 7.04975 2.15333 6.22633C2.54086 5.56492 3.0564 5.04318 3.70165 4.66017C4.3469 4.27716 5.04408 4.08198 5.7949 4.06949C6.20572 4.06949 6.74445 4.19657 7.41394 4.4631C8.08154 4.6969 8.5102 4.82397 8.69814 4.82397C8.83864 4.82397 9.31484 4.67538 10.1221 4.37915C10.8855 4.10443 11.5298 3.99068 12.0576 4.03549C13.4879 4.15092 14.5624 4.71474 15.277 5.73051C13.9979 6.50556 13.3651 7.59111 13.3777 8.9837C13.3893 10.0684 13.7828 10.9711 14.5561 11.6878C14.9066 12.0204 15.298 12.2775 15.7335 12.4601C15.6391 12.734 15.5394 12.9963 15.4334 13.2482ZM12.1531 0.340097C12.1531 1.19029 11.8425 1.98411 11.2234 2.71887C10.4763 3.59235 9.57256 4.09709 8.59257 4.01744C8.58008 3.91544 8.57284 3.8081 8.57284 3.69529C8.57284 2.87911 8.92815 2.00563 9.55913 1.2914C99.87414 0.929832 10.2748 0.629161 10.7606 0.389311C11.2454 0.153039 11.704 0.0223756 12.1353 0C12.1479 0.113658 12.1531 0.227323 12.1531 0.340086V0 0.340097Z" fill="black"/>
</svg>
