<svg preserveAspectRatio="none" width="100%" height="100%" overflow="visible" style="display: block;" viewBox="0 0 343 108" fill="none" xmlns="http://www.w3.org/2000/svg">
<path id="Vector" d="M137.725 105.492H181.127C183.894 105.492 184.769 103.282 183.315 100.638C181.423 97.2535 180.986 94.6096 182.877 84.1623L184.042 76.9505H211.132C213.609 76.9505 215.212 75.625 215.649 73.1236L219.143 53.5546C219.581 50.7611 218.127 48.9937 215.212 48.9937H188.997L191.912 31.9261H212.155C222.348 31.9261 224.973 33.5438 227.889 36.3373C230.218 38.5465 232.695 37.955 233.274 35.1615L238.081 7.06222C238.667 4.26869 237.064 2.50135 234.149 2.50135H149.089C146.322 2.50135 145.447 4.71052 146.901 7.35441C148.792 10.7394 149.23 13.3833 147.338 23.8306L133.942 100.931C133.356 103.724 134.817 105.492 137.725 105.492ZM2.13339 105.492H52.2338C55.0006 105.492 55.8759 103.282 54.4218 100.638C52.5302 97.2535 52.0926 94.6096 53.9842 84.1623L58.9392 55.3219L70.2961 88.5736C74.517 101.23 80.199 105.492 92.7277 105.492H124.624C128.267 105.492 128.556 101.814 125.937 100.047C123.319 98.2797 120.982 95.3365 118.512 89.1579L100.887 45.4591L128.852 16.1768C132.784 12.2075 136.864 9.55645 139.341 8.08129C142.256 6.17143 141.529 2.4871 138.466 2.4871H89.6714C86.9045 2.4871 86.0293 4.69627 87.4833 7.34015C89.3749 10.7252 89.2338 13.3691 80.3473 22.9326L60.9791 43.6775L64.473 23.8163C66.3646 13.3691 67.6775 10.718 70.7338 7.34015C73.063 4.68915 72.9219 2.4871 70.1479 2.4871H20.0476C17.2807 2.4871 16.5537 4.69627 18.0077 7.34015C19.8993 10.7252 20.3369 13.3691 18.4453 23.8163L7.95655 84.141C6.06491 94.5882 4.75205 97.2392 1.69577 100.617C-0.633491 103.268 -0.633491 105.47 2.13339 105.47V105.492ZM292.261 107.993C301.437 107.993 314.834 105.933 321.68 102.698C326.635 100.346 327.362 99.6052 327.941 96.9613L334.202 61.0587C334.491 59.2913 333.616 58.2651 331.873 58.2651C327.355 58.2651 317.311 71.2137 299.686 71.2137C286.579 71.2137 278.857 62.9757 280.756 52.3788C282.506 42.2237 291.823 34.4275 303.914 34.4275C318.045 34.4275 331.004 47.0839 334.647 47.0839C335.959 47.0839 336.835 46.3499 336.976 45.3165L342.947 11.7727C343.237 9.86288 342.361 9.12174 339.743 7.65371C333.482 4.41834 321.977 0 303.477 0C267.938 0 239.831 20.7448 234.001 51.6447C227.592 85.046 251.915 108 292.261 108V107.993Z" fill="var(--fill-0, #F5002B)"/>
</svg>
