<?xml version="1.0" encoding="UTF-8"?> <svg xmlns="http://www.w3.org/2000/svg" id="Layer_1" data-name="Layer 1" viewBox="0 0 1200 216.09"><path d="M57.46,211.46l-23.73-17.48,51.63-70.76L2.5,95.74l8.74-27.47,82.85,26.64V5h30.81v89.91l82.85-26.64,8.74,27.47-82.85,27.47-24.15,16.65-52.04,71.6Z" style="fill: #5d0ec0;"></path><path d="M368.68,207.52c-10.95,0-20.83-1.89-29.64-5.71-8.64-3.79-15.82-9.02-21.59-15.65h-1.72l-3.46,18.24h-26.21V5h30.23v73.5h1.72c5.94-6.27,13.15-11.2,21.59-14.82,8.64-3.79,18.33-5.71,29.08-5.71,13.06,0,25.25,3.23,36.57,9.69,11.51,6.27,20.72,15.1,27.64,26.49,6.9,11.39,10.36,24.2,10.36,38.46s-3.46,27.35-10.36,38.74c-6.9,11.39-16.13,20.3-27.64,26.77-11.32,6.27-23.51,9.39-36.57,9.39ZM364.63,180.47c8.64,0,16.61-2.01,23.9-5.99,7.49-3.98,13.43-9.58,17.85-16.8,4.42-7.41,6.62-15.76,6.62-25.07s-2.2-17.57-6.62-24.79c-4.42-7.21-10.36-12.81-17.85-16.79-7.29-3.98-15.26-5.99-23.9-5.99s-16.69,2.01-24.18,5.99c-7.29,3.98-13.15,9.58-17.57,16.79-4.42,7.21-6.61,15.49-6.61,24.79s2.2,17.66,6.61,25.07c4.42,7.21,10.27,12.81,17.57,16.8,7.49,3.98,15.54,5.99,24.18,5.99ZM458.51,204.4V61.12h26.21l3.15,13.68h1.72c3.27-4.57,7.09-7.97,11.51-10.25,4.42-2.28,9.88-3.43,16.41-3.43h32.54v27.35h-29.36c-10.36,0-18.33,2.65-23.9,7.97-5.38,5.32-8.05,12.81-8.05,22.5v85.45h-30.23ZM608.01,207.52c-18.8,0-33.19-4.09-43.18-12.26-9.97-8.35-14.98-19.36-14.98-33.03s4.9-25.26,14.69-33.62c9.8-8.55,24.46-12.81,44.05-12.81h52.98v-3.7c0-8.91-3.35-15.85-10.08-20.81-6.53-5.13-15.65-7.69-27.36-7.69-21.68,0-34.54,6.54-38.57,19.66h-30.23c1.15-12.92,7.57-23.65,19.28-32.2,11.71-8.75,28.12-13.09,49.23-13.09s37.13,4.93,49.23,14.82c12.27,9.89,18.44,23.17,18.44,39.88v91.72h-26.21l-3.46-15.96h-1.72c-4.42,5.13-11.23,9.58-20.44,13.4-9.21,3.79-19.76,5.71-31.67,5.71l-.03-.03ZM612.32,182.17c15.34,0,27.36-3.43,35.98-10.25,8.84-6.82,13.23-16.15,13.23-27.91v-4.26h-52.7c-9.6,0-16.89,2.01-21.87,5.99-4.78,3.98-7.21,9.22-7.21,15.65s2.67,11.31,8.05,15.1c5.57,3.79,13.71,5.71,24.46,5.71l.06-.03ZM717.18,204.4V61.12h26.2l3.46,14.82h1.72c4.61-4.73,11.12-8.91,19.56-12.53,8.44-3.62,17.65-5.4,27.65-5.4,13.05,0,24.65,2.65,34.82,7.97,10.16,5.32,18.13,13.09,23.9,23.37,5.77,10.06,8.64,22.11,8.64,36.18v78.91h-29.95v-76.62c0-12.73-3.94-22.78-11.79-30.19-7.88-7.6-17.76-11.39-29.64-11.39-8.05,0-15.53,1.81-22.46,5.4-6.72,3.43-12.1,8.27-16.13,14.54-3.83,6.27-5.77,13.48-5.77,21.64v76.62h-30.23l.03-.03ZM959.13,207.52c-14.98,0-28.69-3.23-41.15-9.69-12.27-6.46-21.99-15.37-29.08-26.77-7.09-11.39-10.64-24.2-10.64-38.46s3.55-26.96,10.64-38.16c7.1-11.39,16.81-20.33,29.08-26.77,12.47-6.46,26.2-9.69,41.15-9.69,18.8,0,34.82,4.73,48.08,14.23,13.43,9.3,22.56,21.92,27.36,37.88h-31.07c-3.66-8.16-9.32-14.34-16.98-18.52-7.69-4.37-16.8-6.54-27.36-6.54-9.21,0-17.76,2.01-25.61,5.99-7.69,3.98-13.83,9.58-18.44,16.8-4.62,7.21-6.9,15.49-6.9,24.79s2.3,17.66,6.9,25.07c4.61,7.21,10.75,12.81,18.44,16.79,7.88,3.98,16.41,5.99,25.61,5.99,10.75,0,19.88-2.17,27.36-6.55,7.69-4.57,13.34-11.11,16.98-19.66h31.07c-4.78,16.32-13.9,29.33-27.36,39.02-13.23,9.5-29.28,14.23-48.08,14.23v.03ZM1051.54,204.4V5h30.23v70.63h1.72c4.78-4.73,11.23-8.83,19.28-12.26,8.25-3.62,17.46-5.4,27.65-5.4,13.05,0,24.57,2.65,34.53,7.97,10.16,5.32,18.14,13.09,23.9,23.37,5.77,10.05,8.64,22.11,8.64,36.18v78.9h-29.95v-76.62c0-12.73-3.94-22.78-11.79-30.19-7.89-7.6-17.77-11.39-29.64-11.39-8.06,0-15.54,1.81-22.46,5.4-6.73,3.43-12.11,8.27-16.13,14.54-3.83,6.27-5.77,13.48-5.77,21.64v76.62h-30.23.03Z" style="fill: #5d0ec0;"></path><path d="M1146.15,33.57h-3.96V9.91h-8.93v-3.96h21.82v3.96h-8.93v23.66ZM1164.1,33.57h-3.96V5.95h7.46l7.83,22.37h.92l7.83-22.37h7.55v27.62h-3.96V10.28h-.92l-8.19,23.29h-5.52l-8.1-23.29h-.92v23.29Z" style="fill: #5d0ec0;"></path></svg> 