<svg width="553" height="69" viewBox="0 0 553 69" fill="none" xmlns="http://www.w3.org/2000/svg">
<path d="M1.29297 3.48926H8.56862L33.6091 39.6646L58.5672 3.48926H65.9292V65.5186H54.4225V28.7547L35.4713 55.9496H31.6645L12.7132 28.7547V65.5186H1.29297V3.48926Z" fill="white"/>
<path d="M124.516 51.4243H102.351L97.1887 65.5264H84.9199L109.116 3.49707H117.998L141.939 65.5264H129.67L124.508 51.4243H124.516ZM105.733 41.099H121.216L113.516 19.8639L105.733 41.099Z" fill="white"/>
<path d="M240.177 3.48926V65.5225H228.588V3.48926H240.177Z" fill="white"/>
<path d="M260.275 34.5484C260.275 15.6636 274.996 2.39941 293.267 2.39941C303.756 2.39941 313.232 6.84679 318.65 12.8065L310.95 20.8632C306.467 16.3301 300.205 13.4769 293.267 13.4769C281.171 13.4769 272.116 22.3756 272.116 34.4626C272.116 46.2963 280.916 55.4483 293.098 55.4483C299.95 55.4483 306.55 52.4275 310.612 48.3153V38.9139H292.509V28.842H321.274V53.9399C313.574 61.9966 303.678 66.4479 292.764 66.4479C273.9 66.4479 260.279 52.9342 260.279 34.5523L260.275 34.5484Z" fill="white"/>
<path d="M339.928 34.716C339.928 16.6692 354.224 2.39941 372.413 2.39941C390.602 2.39941 404.898 16.755 404.898 34.5484C404.898 52.2599 390.771 66.5297 372.24 66.5297C353.713 66.5297 339.924 52.5133 339.924 34.716H339.928ZM392.888 34.5484C392.888 22.4613 383.668 13.7303 372.417 13.7303C360.997 13.7303 351.941 22.6289 351.941 34.5484C351.941 46.382 360.824 55.2807 372.417 55.2807C383.924 55.2807 392.975 46.4678 392.888 34.5484Z" fill="white"/>
<path d="M423.307 3.48926H434.896V54.523H467.043V65.5186H423.307V3.48926Z" fill="white"/>
<path d="M479.787 3.48926H503.897C522.51 3.48926 533.675 15.4905 533.675 34.6287C533.675 53.5992 522.337 65.5186 503.386 65.5186H479.783V3.48926H479.787ZM503.814 54.523C515.572 54.523 521.665 45.4567 521.665 34.3792C521.665 23.4654 515.576 14.4849 503.901 14.4849H491.294V54.523H503.814Z" fill="white"/>
<path d="M195.742 48.6256C193.943 45.5425 192.921 43.7573 191.42 41.1536C191.919 41.021 192.159 40.9275 192.159 40.9275C201.297 37.9886 205.273 30.4347 205.273 22.8807C205.273 12.8089 198.59 3.48926 184.29 3.48926H161.025V65.5186H172.532V42.2683C172.532 42.2683 176.355 42.2683 178.708 42.2683C181.305 46.6495 183.194 49.9431 186.054 54.8192C190.926 63.1215 196.555 65.8227 206.596 65.8227V54.6555C202.915 54.6555 198.523 53.3848 195.742 48.6217V48.6256ZM172.532 14.1536H184.29C190.297 14.1536 193.428 18.2658 193.428 22.9665C193.428 27.4996 190.552 31.947 183.021 31.947H172.532V14.1536Z" fill="white"/>
<path d="M533.664 3.37109H541.218V4.54039H538.099V13.4387H536.787V4.54039H533.668V3.37109H533.664Z" fill="white"/>
<path d="M546.562 13.4387L544.264 6.55156C544.071 5.9903 543.773 4.87947 543.773 4.87947H543.757C543.757 4.87947 543.773 6.09554 543.773 6.9842V13.4426H542.504V3.37108H544.386L546.699 10.2114C546.939 10.8935 547.132 11.5444 547.206 11.751C547.265 11.5133 547.43 10.8935 547.654 10.1959L549.877 3.36719H551.787V13.4387H550.518V4.73136H550.502C550.502 4.73136 550.219 5.85778 550.023 6.43463L547.799 13.4387H546.562Z" fill="white"/>
</svg>
