<svg width="118" height="24" viewBox="0 0 118 24" fill="none" xmlns="http://www.w3.org/2000/svg">
<path d="M6.29268 23.1988V12.1968H17.3053L6.29268 23.1988Z" fill="#02043B"/>
<path d="M9.83269 10.6244H0V0.801178L9.83269 10.6244Z" fill="#02043B"/>
<path d="M8.66987e-05 12.1968H4.71978V16.912L8.66987e-05 12.1968Z" fill="#02043B"/>
<path d="M75.2428 16.8576C75.7298 16.8576 76.1254 17.0173 76.4298 17.3369C76.7494 17.6565 76.9091 18.0598 76.9091 18.5468C76.9091 19.0186 76.7494 19.4219 76.4298 19.7568C76.1254 20.0764 75.7298 20.2365 75.2428 20.2366C74.7557 20.2366 74.352 20.0764 74.0323 19.7568C73.728 19.4219 73.5759 19.0186 73.5759 18.5468C73.5759 18.0599 73.728 17.6565 74.0323 17.3369C74.352 17.0172 74.7557 16.8576 75.2428 16.8576Z" fill="#02043B"/>
<path fill-rule="evenodd" clip-rule="evenodd" d="M85.3838 3.79755C86.5252 3.79758 87.5832 4.01046 88.5572 4.43661C89.5465 4.84755 90.414 5.43357 91.1598 6.19453C91.9056 6.94035 92.4838 7.81592 92.8948 8.82048C93.3209 9.80978 93.5344 10.8753 93.5344 12.0168C93.5343 13.1582 93.3209 14.2311 92.8948 15.2355C92.4838 16.2249 91.9056 17.0928 91.1598 17.8386C90.4292 18.5843 89.5694 19.1703 88.5801 19.5965C87.606 20.0227 86.5554 20.2356 85.4291 20.2356C84.2876 20.2355 83.2221 20.0227 82.2327 19.5965C81.2435 19.1703 80.376 18.5843 79.6302 17.8386C78.8844 17.0776 78.2985 16.2024 77.8723 15.2131C77.4613 14.2086 77.2556 13.1354 77.2556 11.9939C77.2556 10.8524 77.4613 9.7869 77.8723 8.79759C78.2985 7.80824 78.8767 6.94035 79.6073 6.19453C80.3531 5.43358 81.2129 4.84755 82.187 4.43661C83.1763 4.01043 84.2422 3.79755 85.3838 3.79755ZM85.3838 6.30901C84.3183 6.30901 83.3742 6.5526 82.5523 7.03966C81.7457 7.51147 81.1064 8.17332 80.6346 9.02553C80.178 9.87789 79.9497 10.8676 79.9497 11.9939C79.9498 12.831 80.0792 13.6074 80.338 14.3227C80.6119 15.0228 80.985 15.6237 81.4568 16.1259C81.9439 16.6282 82.5221 17.0243 83.1918 17.3135C83.8615 17.5874 84.5924 17.7241 85.3838 17.7241C86.4643 17.724 87.4081 17.481 88.2148 16.9939C89.0367 16.5069 89.6759 15.837 90.1325 14.9847C90.6043 14.1171 90.8402 13.1202 90.8402 11.9939C90.8402 11.1568 90.703 10.3958 90.4291 9.71089C90.1704 9.01074 89.7973 8.40946 89.3102 7.90718C88.8232 7.38968 88.2449 6.99359 87.5752 6.71962C86.9208 6.44572 86.1903 6.30904 85.3838 6.30901Z" fill="#02043B"/>
<path fill-rule="evenodd" clip-rule="evenodd" d="M35.7502 8.81997C36.5874 8.81997 37.3258 9.00215 37.9651 9.36745C38.4083 9.60456 38.7887 9.90473 39.1063 10.2675V9.04792H41.6178V20.0071H39.1063V18.8028C38.7979 19.1629 38.4253 19.4656 37.9875 19.71C37.333 20.06 36.5873 20.235 35.7502 20.235C34.7609 20.235 33.8628 19.9843 33.0561 19.482C32.2646 18.9797 31.6331 18.3022 31.1613 17.4498C30.7047 16.5823 30.4765 15.6156 30.4765 14.5502C30.4765 13.4696 30.7047 12.5033 31.1613 11.651C31.6332 10.7834 32.2646 10.0982 33.0561 9.5959C33.8628 9.0784 34.7609 8.81997 35.7502 8.81997ZM36.1614 11.1941C35.5525 11.1941 35.0121 11.3389 34.5403 11.6281C34.0837 11.902 33.7183 12.29 33.4443 12.7922C33.1856 13.2944 33.0561 13.8729 33.0561 14.5273C33.0561 15.1817 33.1856 15.7605 33.4443 16.2628C33.7183 16.765 34.0837 17.1607 34.5403 17.4498C35.0121 17.7238 35.5526 17.861 36.1614 17.861C37.0897 17.8609 37.8354 17.5487 38.3986 16.9248C38.977 16.3007 39.2661 15.5014 39.2661 14.5273C39.2661 13.8729 39.1366 13.2944 38.8779 12.7922C38.6192 12.2901 38.2541 11.902 37.7824 11.6281C37.3258 11.3389 36.7853 11.1941 36.1614 11.1941Z" fill="#02043B"/>
<path fill-rule="evenodd" clip-rule="evenodd" d="M53.8205 8.81997C54.9012 8.81997 55.8755 9.07072 56.7431 9.57301C57.6106 10.0753 58.2954 10.7605 58.7976 11.6281C59.3151 12.4804 59.5741 13.4394 59.5741 14.5049C59.574 15.5702 59.3151 16.5365 58.7976 17.404C58.2954 18.2716 57.6106 18.9645 56.7431 19.482C55.8755 19.9843 54.9012 20.235 53.8205 20.235C52.7551 20.235 51.7884 19.9843 50.9208 19.482C50.0533 18.9645 49.3608 18.2716 48.8433 17.404C48.3412 16.5366 48.0898 15.5702 48.0898 14.5049C48.0898 13.4395 48.3411 12.4804 48.8433 11.6281C49.3608 10.7758 50.0533 10.0982 50.9208 9.5959C51.7884 9.07841 52.7551 8.81999 53.8205 8.81997ZM53.8205 11.2399C53.2117 11.2399 52.6636 11.3847 52.1765 11.6739C51.7049 11.9478 51.3321 12.3282 51.0582 12.8151C50.7994 13.3022 50.67 13.8656 50.67 14.5049C50.67 15.1441 50.7995 15.7148 51.0582 16.217C51.3321 16.7192 51.7048 17.1149 52.1765 17.404C52.6636 17.678 53.2117 17.8151 53.8205 17.8152C54.4445 17.8152 54.9926 17.678 55.4644 17.404C55.9515 17.1149 56.3246 16.7192 56.5833 16.217C56.8572 15.7148 56.9939 15.144 56.9939 14.5049C56.9939 13.8656 56.8573 13.3022 56.5833 12.8151C56.3094 12.3281 55.9362 11.9478 55.4644 11.6739C54.9926 11.3847 54.4445 11.2399 53.8205 11.2399Z" fill="#02043B"/>
<path fill-rule="evenodd" clip-rule="evenodd" d="M112.521 8.81997C113.541 8.82 114.439 9.05595 115.215 9.52772C116.007 9.99956 116.623 10.6464 117.065 11.4683C117.521 12.2902 117.749 13.2262 117.749 14.2764C117.749 14.459 117.734 14.6494 117.704 14.8473C117.688 15.0299 117.658 15.2353 117.613 15.4635H109.438C109.506 15.7489 109.605 16.0156 109.736 16.2628C110.01 16.7803 110.398 17.1836 110.9 17.4727C111.403 17.7467 111.981 17.8839 112.635 17.8839C113.199 17.8838 113.716 17.7846 114.188 17.5867C114.675 17.3888 115.086 17.0997 115.421 16.7192L117.019 18.3403C116.486 18.9643 115.839 19.4361 115.078 19.7557C114.317 20.0753 113.511 20.235 112.658 20.235C111.563 20.235 110.573 19.9919 109.69 19.5049C108.823 19.0026 108.13 18.3174 107.613 17.4498C107.11 16.5823 106.859 15.6079 106.859 14.5273C106.859 13.4467 107.11 12.4803 107.613 11.6281C108.115 10.7605 108.792 10.0753 109.645 9.57301C110.512 9.07079 111.471 8.81997 112.521 8.81997ZM112.476 11.1259C111.836 11.1259 111.281 11.2625 110.809 11.5365C110.337 11.8105 109.972 12.1989 109.713 12.7011C109.598 12.9174 109.511 13.1537 109.447 13.4089H115.276C115.21 13.0864 115.115 12.7971 114.987 12.5414C114.759 12.0848 114.431 11.7347 114.005 11.4912C113.594 11.2477 113.084 11.1259 112.476 11.1259Z" fill="#02043B"/>
<path d="M32.9487 6.42299H27.7431V20.0076H25.1177V6.42299H19.9121V4.026H32.9487V6.42299Z" fill="#02043B"/>
<path d="M46.4153 20.0071H43.9039V3.56909H46.4153V20.0071Z" fill="#02043B"/>
<path d="M66.9823 8.81997C67.8042 8.81997 68.535 9.03287 69.1742 9.45903C69.8135 9.86999 70.316 10.4104 70.6813 11.0801C71.0465 11.7345 71.2293 12.4194 71.2293 13.1347V20.0071H68.7178V13.6826C68.7178 12.9521 68.4819 12.3507 68.0101 11.8789C67.5535 11.4071 66.9598 11.1712 66.2293 11.1712C65.7422 11.1712 65.3083 11.2781 64.9277 11.4912C64.5473 11.7043 64.2504 12.0011 64.0373 12.3816C63.8243 12.7621 63.7178 13.1957 63.7178 13.6826V20.0071H61.2063V9.04792H63.7178V10.2869C64.0176 9.92704 64.3752 9.62788 64.7909 9.39035C65.4453 9.00993 66.1758 8.82001 66.9823 8.81997Z" fill="#02043B"/>
<path d="M101.092 8.81997C101.914 8.81998 102.645 9.03286 103.284 9.45903C103.923 9.86998 104.425 10.4104 104.791 11.0801C105.156 11.7345 105.339 12.4193 105.339 13.1347V20.0071H102.827V13.6826C102.827 12.9521 102.591 12.3507 102.119 11.8789C101.663 11.4072 101.069 11.1712 100.339 11.1712C99.8516 11.1712 99.4181 11.2782 99.0376 11.4912C98.6571 11.7043 98.3603 12.0011 98.1472 12.3816C97.9342 12.7621 97.8272 13.1957 97.8272 13.6826V20.0071H95.3157V9.04792H97.8272V10.2874C98.1271 9.92737 98.4844 9.62798 98.9002 9.39035C99.5547 9.00983 100.285 8.81997 101.092 8.81997Z" fill="#02043B"/>
</svg>
