<svg width="2400" height="3200" viewBox="0 0 2400 3200" fill="none" xmlns="http://www.w3.org/2000/svg">
  <rect width="2400" height="3200" fill="#f7f4ec"/>
  <g opacity=".62">
    <path d="M0 0h2400v3200H0z" fill="#f8f7f4"/>
    <path d="M-200 250 480 90l310 420-420 210-480-110z" fill="#fbf0d2"/>
    <path d="m1510 110 980 30 40 510-790 80-290-250z" fill="#fbf0d2"/>
    <path d="m-160 1330 540-230 540 250-150 420-760 80z" fill="#fbf0d2"/>
    <path d="m1390 1510 900-160 280 490-760 330-510-230z" fill="#fbf0d2"/>
    <path d="m320 2440 830-140 350 500-410 360-850-120z" fill="#fbf0d2"/>
  </g>
  <g opacity=".9">
    <path d="M-220 774c250-80 400-70 650 34 240 100 430 76 720-108 300-191 508-232 880-134 174 46 304 52 542 14" stroke="#cae6f5" stroke-width="130" stroke-linecap="round"/>
    <path d="M-220 774c250-80 400-70 650 34 240 100 430 76 720-108 300-191 508-232 880-134 174 46 304 52 542 14" stroke="#eaf6fb" stroke-width="96" stroke-linecap="round"/>
  </g>
  <g opacity=".92">
    <path d="m290 178 246 70 30 234-252 62-190-130z" fill="#bbefc8"/>
    <path d="m1582 842 286-56 178 150-80 250-322 30-156-174z" fill="#b8edc7"/>
    <path d="m548 1508 326-80 244 174-92 302-350 78-226-192z" fill="#b9efc8"/>
    <path d="m1722 2298 378-92 228 214-88 330-430 84-236-224z" fill="#b9efc8"/>
    <path d="m128 2554 308-58 170 174-72 248-352 66-158-194z" fill="#b9efc8"/>
    <path d="m1122 254 214-44 146 134-44 210-238 48-136-146z" fill="#d7efd1"/>
    <path d="m1160 1144 160-42 122 96-34 170-178 42-114-104z" fill="#d7efd1"/>
    <path d="m902 2258 226-34 140 146-52 224-250 30-126-158z" fill="#d7efd1"/>
  </g>
  <g stroke-linecap="round" stroke-linejoin="round">
    <g stroke="#cfd9e1" stroke-width="92">
      <path d="M-180 2570C224 2390 498 2186 816 1824c370-420 714-630 1268-728l516-92"/>
      <path d="M410-160c170 390 224 672 162 1090-58 388 34 694 304 1016 254 304 350 596 318 1036"/>
      <path d="M-150 1178c314-96 634-104 962-24 310 74 614 52 912-66 270-108 548-118 874-28"/>
      <path d="M1944-120c-88 388-254 702-498 942-242 238-328 510-254 846 70 316 36 626-104 930"/>
    </g>
    <g stroke="#fffdf9" stroke-width="66">
      <path d="M-180 2570C224 2390 498 2186 816 1824c370-420 714-630 1268-728l516-92"/>
      <path d="M410-160c170 390 224 672 162 1090-58 388 34 694 304 1016 254 304 350 596 318 1036"/>
      <path d="M-150 1178c314-96 634-104 962-24 310 74 614 52 912-66 270-108 548-118 874-28"/>
      <path d="M1944-120c-88 388-254 702-498 942-242 238-328 510-254 846 70 316 36 626-104 930"/>
    </g>
    <g stroke="#d8e2e9" stroke-width="46">
      <path d="M-100 408c372 116 694 152 966 108 368-58 662-34 1010 156 238 130 464 178 728 144"/>
      <path d="M-170 1634c300-132 584-174 852-126 354 62 666 32 938-90 294-132 584-140 878-24"/>
      <path d="M-66 2116c314-22 566-122 756-300 184-172 416-278 696-318 318-46 626-168 924-366"/>
      <path d="M124 3170c246-340 384-650 414-930 34-318 172-584 414-798 216-190 360-436 432-738 68-286 212-554 434-804"/>
      <path d="M748-130c46 306 54 596 22 870-34 292 50 546 252 762 190 202 292 470 304 804 12 342 92 636 240 882"/>
      <path d="M2304-104c-174 248-314 514-420 798-108 288-100 578 22 870 122 294 148 578 78 852-70 274-54 528 48 762"/>
    </g>
    <g stroke="#fffdf9" stroke-width="30">
      <path d="M-100 408c372 116 694 152 966 108 368-58 662-34 1010 156 238 130 464 178 728 144"/>
      <path d="M-170 1634c300-132 584-174 852-126 354 62 666 32 938-90 294-132 584-140 878-24"/>
      <path d="M-66 2116c314-22 566-122 756-300 184-172 416-278 696-318 318-46 626-168 924-366"/>
      <path d="M124 3170c246-340 384-650 414-930 34-318 172-584 414-798 216-190 360-436 432-738 68-286 212-554 434-804"/>
      <path d="M748-130c46 306 54 596 22 870-34 292 50 546 252 762 190 202 292 470 304 804 12 342 92 636 240 882"/>
      <path d="M2304-104c-174 248-314 514-420 798-108 288-100 578 22 870 122 294 148 578 78 852-70 274-54 528 48 762"/>
    </g>
    <g stroke="#dbe4eb" stroke-width="22">
      <path d="M60 94c128 132 288 222 480 270"/>
      <path d="M910 122c-80 188-194 344-342 468"/>
      <path d="m1458 152 320 254 496 110"/>
      <path d="M112 684c184-46 368-58 552-36"/>
      <path d="m802 782 548 82 640-52"/>
      <path d="M2084 726c-120 148-176 316-168 504"/>
      <path d="M174 982c234-14 430 46 588 180"/>
      <path d="M1012 1136c-68 170-168 298-300 384"/>
      <path d="m1384 1188 428 272 520 70"/>
      <path d="M156 1388c150 92 326 140 528 144"/>
      <path d="m812 1678 412 60 452-80"/>
      <path d="M2102 1668c-172 126-286 296-342 510"/>
      <path d="M112 1908c218 42 392 140 522 294"/>
      <path d="m782 2098 380 122 516-26"/>
      <path d="M326 2310c150 92 320 134 510 126"/>
      <path d="m1350 2418 388 154 546 20"/>
      <path d="M746 2624c192 60 418 62 678 8"/>
      <path d="M154 2898c268-20 486-108 654-264"/>
      <path d="M1302 2910c300-62 560-190 780-384"/>
    </g>
    <g stroke="#fffefa" stroke-width="14">
      <path d="M60 94c128 132 288 222 480 270"/>
      <path d="M910 122c-80 188-194 344-342 468"/>
      <path d="m1458 152 320 254 496 110"/>
      <path d="M112 684c184-46 368-58 552-36"/>
      <path d="m802 782 548 82 640-52"/>
      <path d="M2084 726c-120 148-176 316-168 504"/>
      <path d="M174 982c234-14 430 46 588 180"/>
      <path d="M1012 1136c-68 170-168 298-300 384"/>
      <path d="m1384 1188 428 272 520 70"/>
      <path d="M156 1388c150 92 326 140 528 144"/>
      <path d="m812 1678 412 60 452-80"/>
      <path d="M2102 1668c-172 126-286 296-342 510"/>
      <path d="M112 1908c218 42 392 140 522 294"/>
      <path d="m782 2098 380 122 516-26"/>
      <path d="M326 2310c150 92 320 134 510 126"/>
      <path d="m1350 2418 388 154 546 20"/>
      <path d="M746 2624c192 60 418 62 678 8"/>
      <path d="M154 2898c268-20 486-108 654-264"/>
      <path d="M1302 2910c300-62 560-190 780-384"/>
    </g>
  </g>
  <g opacity=".44" stroke="#9aaebb" stroke-width="16" stroke-linecap="round">
    <path d="M-40 2510c350-128 594-302 732-522 114-182 260-316 438-402 186-90 310-238 372-444" stroke-dasharray="22 32"/>
    <path d="M2188-72c-54 348-198 636-432 864-184 178-256 394-216 646 36 232 0 456-108 672" stroke-dasharray="20 34"/>
  </g>
  <g opacity=".65">
    <circle cx="586" cy="618" r="20" fill="#9a6cf3"/>
    <circle cx="586" cy="618" r="10" fill="#fff"/>
    <circle cx="1668" cy="1238" r="20" fill="#9a6cf3"/>
    <circle cx="1668" cy="1238" r="10" fill="#fff"/>
    <circle cx="1204" cy="2350" r="20" fill="#9a6cf3"/>
    <circle cx="1204" cy="2350" r="10" fill="#fff"/>
  </g>
  <g opacity=".24">
    <rect x="146" y="115" width="120" height="86" rx="18" fill="#ffffff"/>
    <rect x="704" y="300" width="168" height="110" rx="18" fill="#ffffff"/>
    <rect x="1762" y="214" width="180" height="124" rx="18" fill="#ffffff"/>
    <rect x="1516" y="558" width="214" height="138" rx="18" fill="#ffffff"/>
    <rect x="260" y="876" width="230" height="148" rx="18" fill="#ffffff"/>
    <rect x="822" y="934" width="198" height="126" rx="18" fill="#ffffff"/>
    <rect x="1988" y="1172" width="178" height="112" rx="18" fill="#ffffff"/>
    <rect x="358" y="1328" width="172" height="110" rx="18" fill="#ffffff"/>
    <rect x="1076" y="1730" width="230" height="140" rx="18" fill="#ffffff"/>
    <rect x="1782" y="1852" width="196" height="130" rx="18" fill="#ffffff"/>
    <rect x="530" y="2212" width="214" height="132" rx="18" fill="#ffffff"/>
    <rect x="1436" y="2732" width="244" height="148" rx="18" fill="#ffffff"/>
  </g>
</svg>
